# xmcd
# Track frame offsets:
# 150
# 22788
# 35320
# 62525
# 86430
# 105169
# 128063
#
# Disc length: 1918 seconds
# Revision: 0
# Processed by: cddbd v1.5.2PL0 Copyright (c) Steve Scherf et al.
# Submitted via: VisiTrax 2.11.2.271 - For more info visit www.synapsa.com
#
DISCID=40077c07
DTITLE=Mojo Bluesmen - Whiskey and Women
DYEAR=2010
DGENRE=Blues
TTITLE0=Whiskey and Women
TTITLE1=Black Cat
TTITLE2=Put Me in Your Bed
TTITLE3=Sweet
TTITLE4=Chicken
TTITLE5=Roll 'n Tumble
TTITLE6=Spoonful
EXTD=
EXTT0=
EXTT1=
EXTT2=
EXTT3=
EXTT4=
EXTT5=
EXTT6=
PLAYORDER=
